<?xml version="1.0" standalone="no"?>
<!DOCTYPE svg PUBLIC "-//W3C//DTD SVG 20010904//EN"
 "http://www.w3.org/TR/2001/REC-SVG-20010904/DTD/svg10.dtd">
<svg version="1.0" xmlns="http://www.w3.org/2000/svg"
 width="472.000000pt" height="472.000000pt" viewBox="0 0 472.000000 472.000000"
 preserveAspectRatio="xMidYMid meet">
<metadata>
Created by potrace 1.11, written by Peter Selinger 2001-2013
</metadata>
<g transform="translate(0.000000,472.000000) scale(0.100000,-0.100000)"
fill="#000000" stroke="none">
<path d="M1260 4607 c-122 -35 -243 -136 -303 -252 -25 -49 -47 -129 -47 -171
0 -56 39 -161 79 -211 43 -54 166 -152 226 -179 52 -24 86 -61 128 -143 128
-243 145 -418 57 -597 -60 -123 -251 -315 -357 -359 -95 -40 -164 4 -225 142
-25 58 -19 80 39 134 175 163 195 185 225 246 62 126 27 270 -97 395 -72 73
-128 99 -225 105 -124 9 -244 -31 -316 -104 -20 -21 -40 -37 -45 -36 -5 2 -8
0 -7 -5 1 -4 -7 -25 -17 -47 -15 -32 -19 -63 -20 -150 0 -102 2 -115 30 -175
16 -36 30 -67 30 -70 1 -3 6 -14 12 -25 23 -41 35 -143 37 -309 4 -277 34
-326 251 -411 108 -42 112 -52 85 -182 -80 -378 -83 -402 -84 -568 0 -129 5
-180 23 -265 75 -347 210 -600 446 -835 175 -175 334 -282 568 -379 161 -68
239 -80 512 -80 359 0 548 36 780 150 308 151 539 394 710 749 117 243 173
444 182 651 4 104 2 148 -12 210 -28 124 -17 178 100 493 31 85 66 167 78 182
12 15 62 49 110 75 138 74 237 199 254 320 18 130 -197 334 -353 334 -99 0
-242 -95 -312 -208 -23 -36 -23 -40 -16 -223 8 -236 -6 -291 -72 -275 -60 15
-336 315 -374 405 -14 34 -14 34 32 75 25 23 72 55 104 71 87 44 199 129 281
210 79 80 130 112 226 144 167 56 247 161 247 324 0 128 -73 239 -193 292 -53
25 -74 28 -152 28 -150 -1 -249 -52 -300 -157 -25 -52 -26 -58 -23 -217 3
-149 1 -167 -17 -197 -33 -55 -80 -80 -175 -91 -149 -19 -340 -136 -340 -209
0 -69 -93 -84 -206 -32 -194 88 -349 246 -370 378 -12 79 41 113 73 47 21 -45
98 -97 211 -143 109 -44 150 -41 270 18 112 55 207 148 237 230 27 75 26 177
-3 250 -24 62 -48 96 -107 155 -65 65 -89 81 -161 111 -56 22 -84 28 -149 28
-126 0 -177 -28 -310 -170 -59 -63 -111 -111 -116 -108 -5 3 -8 1 -7 -4 2 -6
-38 -52 -88 -104 -50 -51 -97 -108 -105 -125 -8 -18 -17 -33 -20 -33 -7 0 -8
-5 -15 -118 -8 -113 8 -197 47 -255 16 -23 29 -45 29 -49 0 -14 -137 -52 -189
-52 -52 0 -56 2 -95 46 -23 25 -61 85 -86 134 -55 108 -125 218 -194 304 -29
36 -61 77 -71 93 -19 30 -19 31 68 145 78 102 86 291 18 431 -75 156 -283 261
-431 218z m145 -235 c58 -22 100 -56 119 -95 24 -51 20 -157 -5 -141 -5 3 -9
2 -8 -3 4 -21 -4 -32 -39 -57 -48 -33 -194 -87 -249 -91 -38 -3 -47 0 -81 33
-64 61 -76 144 -37 239 19 45 65 103 81 103 8 0 14 4 14 9 0 15 80 30 125 24
22 -3 58 -12 80 -21z m1481 -377 c14 -14 22 -30 18 -37 -4 -7 -3 -8 4 -4 14 8
30 -48 26 -88 -2 -16 -11 -40 -19 -53 -15 -23 -91 -63 -120 -63 -15 0 -83 68
-102 103 -20 36 -15 73 14 108 52 62 135 77 179 34z m1080 -111 c59 -28 87
-113 64 -194 -18 -66 -115 -139 -164 -124 -70 21 -145 132 -132 196 8 41 44
98 62 98 8 0 14 4 14 9 0 13 48 29 88 30 19 1 49 -6 68 -15z m-3290 -410 c53
-25 117 -97 138 -154 18 -50 18 -50 -5 -97 -32 -63 -75 -85 -153 -80 -52 3
-63 7 -86 36 -86 102 -57 311 43 311 16 0 44 -7 63 -16z m3522 -442 c84 -60
87 -224 4 -265 -72 -37 -199 -25 -223 20 -39 73 2 218 71 255 44 24 106 19
148 -10z m-1630 -377 c87 -40 199 -124 253 -188 97 -116 147 -245 156 -402 16
-279 -133 -523 -403 -658 -68 -34 -142 -53 -156 -39 -6 6 0 52 21 143 71 315
84 397 84 544 1 124 -4 160 -37 318 -37 175 -47 270 -32 295 11 19 56 14 114
-13z m-372 1 c3 -8 -6 -79 -20 -158 -61 -337 -62 -562 -5 -863 12 -60 27 -134
35 -164 15 -58 7 -90 -24 -92 -93 -6 -225 70 -341 197 -103 113 -159 218 -186
349 -20 97 -14 178 21 283 77 233 208 380 389 438 81 27 123 30 131 10z m-678
-1562 c19 -15 43 -47 54 -71 24 -54 33 -189 21 -318 l-8 -90 -59 75 c-88 112
-119 186 -124 290 -4 76 -2 88 18 113 27 34 54 34 98 1z m1757 13 c59 -44 -64
-394 -157 -447 -25 -13 -29 -13 -44 1 -9 10 -19 43 -23 77 -20 172 44 330 151
369 44 15 51 15 73 0z m-825 -206 c23 -7 25 -11 23 -67 -4 -114 -72 -332 -117
-377 -15 -15 -21 -15 -34 -5 -42 35 -141 305 -145 399 -2 38 1 43 23 50 32 9
218 9 250 0z m391 -82 c16 -100 -25 -299 -75 -367 -49 -68 -141 -117 -170 -93
-18 15 -8 62 38 180 37 95 127 280 158 324 26 36 38 25 49 -44z m-968 9 c92
-122 254 -445 233 -465 -3 -3 -25 -8 -50 -10 -34 -4 -53 -1 -80 16 -94 59
-194 315 -167 432 16 69 28 74 64 27z"/>
</g>
</svg>
