<?xml version="1.0" standalone="no"?>
<!DOCTYPE svg PUBLIC "-//W3C//DTD SVG 20010904//EN"
 "http://www.w3.org/TR/2001/REC-SVG-20010904/DTD/svg10.dtd">
<svg version="1.0" xmlns="http://www.w3.org/2000/svg"
 width="700.000000pt" height="700.000000pt" viewBox="0 0 700.000000 700.000000"
 preserveAspectRatio="xMidYMid meet">
<metadata>
Created by potrace 1.14, written by Peter Selinger 2001-2017
</metadata>
<g transform="translate(0.000000,700.000000) scale(0.100000,-0.100000)"
fill="#000000" stroke="none">
<path d="M140 6409 c0 -6 129 -231 389 -679 60 -102 119 -205 133 -230 14 -25
91 -157 170 -295 80 -137 156 -270 170 -295 24 -42 192 -333 278 -480 21 -36
112 -193 202 -350 91 -157 250 -433 355 -615 105 -181 291 -503 413 -715 275
-477 508 -880 521 -900 7 -12 105 -182 187 -325 6 -11 74 -129 152 -263 77
-134 140 -246 140 -249 0 -3 9 -18 21 -34 11 -16 33 -51 47 -78 15 -27 61
-108 102 -180 71 -124 76 -130 91 -112 8 10 61 99 118 197 56 99 107 186 112
194 11 19 268 465 504 875 98 171 190 330 205 355 15 25 51 88 81 140 30 52
57 97 61 98 5 2 8 8 8 13 0 5 25 53 57 107 31 53 156 270 278 482 122 212 255
441 295 510 40 69 82 141 93 160 20 36 191 332 325 564 41 72 82 144 92 160 9
17 73 128 142 246 69 118 136 235 150 260 14 25 89 155 167 289 77 134 141
248 141 253 0 4 5 8 10 8 6 0 10 4 10 9 0 5 57 108 126 228 70 120 136 234
146 253 11 19 37 64 58 100 21 36 47 81 58 100 11 19 38 67 60 105 22 39 42
76 44 84 3 13 -173 15 -1284 17 l-1287 2 -18 -27 c-10 -14 -23 -35 -29 -46 -6
-11 -138 -240 -294 -510 -155 -269 -317 -550 -359 -622 -42 -73 -78 -133 -81
-133 -4 0 -258 433 -312 533 -10 18 -118 205 -240 417 l-223 385 -1293 0
c-710 0 -1292 -3 -1292 -6z"/>
</g>
</svg>
